<svg xmlns="http://www.w3.org/2000/svg" xmlns:xlink="http://www.w3.org/1999/xlink" version="1.1" width="256" height="256" viewBox="0 0 256 256" xml:space="preserve">

<defs>
</defs>
<g style="stroke: none; stroke-width: 0; stroke-dasharray: none; stroke-linecap: butt; stroke-linejoin: miter; stroke-miterlimit: 10; fill: none; fill-rule: nonzero; opacity: 1;" transform="translate(1.4065934065934016 1.4065934065934016) scale(2.81 2.81)" >
	<path d="M 10.265 25.602 c -0.033 -0.502 -0.056 -1.006 -0.056 -1.516 c 0 -12.432 10.078 -22.509 22.509 -22.509 c 8.993 0 16.752 5.276 20.357 12.9 c 2.715 -1.928 6.025 -3.072 9.609 -3.072 c 8.291 0 15.145 6.074 16.405 14.01 C 84.799 26.977 89 32.187 89 38.392 c 0 7.438 -6.03 13.468 -13.468 13.468 H 14.468 C 7.03 51.859 1 45.83 1 38.392 C 1 32.422 4.887 27.368 10.265 25.602 z" style="stroke: none; stroke-width: 1; stroke-dasharray: none; stroke-linecap: butt; stroke-linejoin: miter; stroke-miterlimit: 10; fill: rgb(98,195,247); fill-rule: nonzero; opacity: 1;" transform=" matrix(1 0 0 1 0 0) " stroke-linecap="round" />
	<path d="M 75.532 52.859 H 14.468 C 6.49 52.859 0 46.369 0 38.392 c 0 -6.004 3.677 -11.328 9.227 -13.48 c -0.011 -0.274 -0.018 -0.549 -0.018 -0.826 c 0 -12.963 10.546 -23.51 23.509 -23.51 c 8.661 0 16.68 4.848 20.744 12.445 c 2.779 -1.716 5.944 -2.617 9.223 -2.617 c 8.499 0 15.669 5.946 17.282 14.228 C 85.905 26.544 90 32.112 90 38.392 C 90 46.369 83.51 52.859 75.532 52.859 z M 32.718 2.576 c -11.86 0 -21.509 9.649 -21.509 21.51 c 0 0.487 0.022 0.97 0.054 1.45 c 0.03 0.456 -0.252 0.874 -0.686 1.016 C 5.447 28.237 2 32.995 2 38.392 c 0 6.875 5.593 12.468 12.468 12.468 h 61.064 C 82.407 50.859 88 45.267 88 38.392 c 0 -5.595 -3.772 -10.535 -9.174 -12.013 c -0.379 -0.104 -0.662 -0.419 -0.724 -0.808 c -1.211 -7.629 -7.695 -13.167 -15.418 -13.167 c -3.247 0 -6.37 0.999 -9.03 2.888 c -0.242 0.171 -0.548 0.227 -0.832 0.152 c -0.286 -0.075 -0.524 -0.272 -0.651 -0.54 C 48.63 7.415 40.994 2.576 32.718 2.576 z" style="stroke: none; stroke-width: 1; stroke-dasharray: none; stroke-linecap: butt; stroke-linejoin: miter; stroke-miterlimit: 10; fill: rgb(0,0,0); fill-rule: nonzero; opacity: 1;" transform=" matrix(1 0 0 1 0 0) " stroke-linecap="round" />
	<path d="M 20.329 65.378 h 2.939 l -1.47 2.546 c -0.276 0.479 -0.112 1.09 0.366 1.366 c 0.158 0.091 0.33 0.134 0.499 0.134 c 0.346 0 0.682 -0.18 0.867 -0.5 L 25 66.379 l 1.469 2.545 c 0.186 0.321 0.521 0.5 0.867 0.5 c 0.169 0 0.341 -0.043 0.499 -0.134 c 0.478 -0.276 0.642 -0.888 0.366 -1.366 l -1.47 -2.546 h 2.939 c 0.552 0 1 -0.447 1 -1 s -0.448 -1 -1 -1 h -2.938 l 1.469 -2.545 c 0.276 -0.479 0.112 -1.09 -0.366 -1.366 c -0.48 -0.277 -1.09 -0.111 -1.366 0.366 L 25 62.378 l -1.469 -2.545 c -0.277 -0.479 -0.888 -0.644 -1.366 -0.366 c -0.478 0.276 -0.642 0.888 -0.366 1.366 l 1.469 2.545 h -2.938 c -0.552 0 -1 0.447 -1 1 S 19.777 65.378 20.329 65.378 z" style="stroke: none; stroke-width: 1; stroke-dasharray: none; stroke-linecap: butt; stroke-linejoin: miter; stroke-miterlimit: 10; fill: rgb(0,0,0); fill-rule: nonzero; opacity: 1;" transform=" matrix(1 0 0 1 0 0) " stroke-linecap="round" />
	<path d="M 29.671 83.378 h -2.938 l 1.469 -2.545 c 0.276 -0.479 0.112 -1.09 -0.366 -1.366 c -0.48 -0.277 -1.09 -0.111 -1.366 0.366 L 25 82.378 l -1.469 -2.545 c -0.277 -0.479 -0.888 -0.644 -1.366 -0.366 c -0.478 0.276 -0.642 0.888 -0.366 1.366 l 1.469 2.545 h -2.938 c -0.552 0 -1 0.447 -1 1 s 0.448 1 1 1 h 2.939 l -1.47 2.546 c -0.276 0.479 -0.112 1.09 0.366 1.366 c 0.158 0.091 0.33 0.134 0.499 0.134 c 0.346 0 0.682 -0.18 0.867 -0.5 L 25 86.379 l 1.469 2.545 c 0.186 0.321 0.521 0.5 0.867 0.5 c 0.169 0 0.341 -0.043 0.499 -0.134 c 0.478 -0.276 0.642 -0.888 0.366 -1.366 l -1.47 -2.546 h 2.939 c 0.552 0 1 -0.447 1 -1 S 30.223 83.378 29.671 83.378 z" style="stroke: none; stroke-width: 1; stroke-dasharray: none; stroke-linecap: butt; stroke-linejoin: miter; stroke-miterlimit: 10; fill: rgb(0,0,0); fill-rule: nonzero; opacity: 1;" transform=" matrix(1 0 0 1 0 0) " stroke-linecap="round" />
	<path d="M 36.732 75.378 h 2.939 c 0.552 0 1 -0.447 1 -1 s -0.448 -1 -1 -1 h -2.938 l 1.469 -2.545 c 0.276 -0.479 0.112 -1.09 -0.366 -1.366 c -0.48 -0.277 -1.09 -0.111 -1.366 0.366 L 35 72.378 l -1.469 -2.545 c -0.277 -0.479 -0.888 -0.644 -1.366 -0.366 c -0.478 0.276 -0.642 0.888 -0.366 1.366 l 1.469 2.545 h -2.938 c -0.552 0 -1 0.447 -1 1 s 0.448 1 1 1 h 2.939 l -1.47 2.546 c -0.276 0.479 -0.112 1.09 0.366 1.366 c 0.158 0.091 0.33 0.134 0.499 0.134 c 0.346 0 0.682 -0.18 0.867 -0.5 L 35 76.379 l 1.469 2.545 c 0.186 0.321 0.521 0.5 0.867 0.5 c 0.169 0 0.341 -0.043 0.499 -0.134 c 0.478 -0.276 0.642 -0.888 0.366 -1.366 L 36.732 75.378 z" style="stroke: none; stroke-width: 1; stroke-dasharray: none; stroke-linecap: butt; stroke-linejoin: miter; stroke-miterlimit: 10; fill: rgb(0,0,0); fill-rule: nonzero; opacity: 1;" transform=" matrix(1 0 0 1 0 0) " stroke-linecap="round" />
	<path d="M 40.329 65.378 h 2.939 l -1.47 2.546 c -0.276 0.479 -0.112 1.09 0.366 1.366 c 0.158 0.091 0.33 0.134 0.499 0.134 c 0.346 0 0.682 -0.179 0.867 -0.5 L 45 66.379 l 1.469 2.545 c 0.186 0.321 0.521 0.5 0.867 0.5 c 0.17 0 0.342 -0.043 0.499 -0.134 c 0.479 -0.276 0.643 -0.888 0.366 -1.366 l -1.47 -2.546 h 2.939 c 0.553 0 1 -0.447 1 -1 s -0.447 -1 -1 -1 h -2.938 l 1.469 -2.545 c 0.276 -0.479 0.112 -1.09 -0.366 -1.366 c -0.478 -0.276 -1.09 -0.113 -1.366 0.366 L 45 62.378 l -1.469 -2.545 c -0.277 -0.479 -0.89 -0.644 -1.366 -0.366 c -0.479 0.276 -0.642 0.888 -0.366 1.366 l 1.469 2.545 h -2.939 c -0.552 0 -1 0.447 -1 1 S 39.777 65.378 40.329 65.378 z" style="stroke: none; stroke-width: 1; stroke-dasharray: none; stroke-linecap: butt; stroke-linejoin: miter; stroke-miterlimit: 10; fill: rgb(0,0,0); fill-rule: nonzero; opacity: 1;" transform=" matrix(1 0 0 1 0 0) " stroke-linecap="round" />
	<path d="M 49.671 83.378 h -2.938 l 1.469 -2.545 c 0.276 -0.479 0.112 -1.09 -0.366 -1.366 c -0.478 -0.276 -1.09 -0.113 -1.366 0.366 L 45 82.378 l -1.469 -2.545 c -0.277 -0.479 -0.89 -0.644 -1.366 -0.366 c -0.479 0.276 -0.642 0.888 -0.366 1.366 l 1.469 2.545 h -2.939 c -0.552 0 -1 0.447 -1 1 s 0.448 1 1 1 h 2.939 l -1.47 2.546 c -0.276 0.479 -0.112 1.09 0.366 1.366 c 0.158 0.091 0.33 0.134 0.499 0.134 c 0.346 0 0.682 -0.179 0.867 -0.5 L 45 86.379 l 1.469 2.545 c 0.186 0.321 0.521 0.5 0.867 0.5 c 0.17 0 0.342 -0.043 0.499 -0.134 c 0.479 -0.276 0.643 -0.888 0.366 -1.366 l -1.47 -2.546 h 2.939 c 0.553 0 1 -0.447 1 -1 S 50.224 83.378 49.671 83.378 z" style="stroke: none; stroke-width: 1; stroke-dasharray: none; stroke-linecap: butt; stroke-linejoin: miter; stroke-miterlimit: 10; fill: rgb(0,0,0); fill-rule: nonzero; opacity: 1;" transform=" matrix(1 0 0 1 0 0) " stroke-linecap="round" />
	<path d="M 56.732 75.378 h 2.939 c 0.553 0 1 -0.447 1 -1 s -0.447 -1 -1 -1 h -2.938 l 1.469 -2.545 c 0.276 -0.479 0.112 -1.09 -0.366 -1.366 s -1.09 -0.113 -1.366 0.366 L 55 72.378 l -1.47 -2.545 c -0.277 -0.479 -0.89 -0.643 -1.366 -0.366 c -0.479 0.276 -0.643 0.888 -0.366 1.366 l 1.469 2.545 h -2.938 c -0.553 0 -1 0.447 -1 1 s 0.447 1 1 1 h 2.939 l -1.47 2.546 c -0.276 0.479 -0.112 1.09 0.366 1.366 c 0.157 0.091 0.329 0.134 0.499 0.134 c 0.346 0 0.682 -0.179 0.867 -0.5 L 55 76.379 l 1.47 2.545 c 0.186 0.321 0.521 0.5 0.867 0.5 c 0.17 0 0.342 -0.043 0.499 -0.134 c 0.479 -0.276 0.643 -0.888 0.366 -1.366 L 56.732 75.378 z" style="stroke: none; stroke-width: 1; stroke-dasharray: none; stroke-linecap: butt; stroke-linejoin: miter; stroke-miterlimit: 10; fill: rgb(0,0,0); fill-rule: nonzero; opacity: 1;" transform=" matrix(1 0 0 1 0 0) " stroke-linecap="round" />
	<path d="M 60.329 65.378 h 2.939 l -1.47 2.546 c -0.276 0.479 -0.112 1.09 0.366 1.366 c 0.157 0.091 0.329 0.134 0.499 0.134 c 0.346 0 0.682 -0.179 0.867 -0.5 L 65 66.379 l 1.47 2.545 c 0.186 0.321 0.521 0.5 0.867 0.5 c 0.17 0 0.342 -0.043 0.499 -0.134 c 0.479 -0.276 0.643 -0.888 0.366 -1.366 l -1.47 -2.546 h 2.939 c 0.553 0 1 -0.447 1 -1 s -0.447 -1 -1 -1 h -2.938 l 1.469 -2.545 c 0.276 -0.479 0.112 -1.09 -0.366 -1.366 s -1.089 -0.113 -1.366 0.366 L 65 62.378 l -1.47 -2.545 c -0.277 -0.479 -0.891 -0.643 -1.366 -0.366 c -0.479 0.276 -0.643 0.888 -0.366 1.366 l 1.469 2.545 h -2.938 c -0.553 0 -1 0.447 -1 1 S 59.776 65.378 60.329 65.378 z" style="stroke: none; stroke-width: 1; stroke-dasharray: none; stroke-linecap: butt; stroke-linejoin: miter; stroke-miterlimit: 10; fill: rgb(0,0,0); fill-rule: nonzero; opacity: 1;" transform=" matrix(1 0 0 1 0 0) " stroke-linecap="round" />
	<path d="M 69.671 83.378 h -2.938 l 1.469 -2.545 c 0.276 -0.479 0.112 -1.09 -0.366 -1.366 s -1.089 -0.113 -1.366 0.366 L 65 82.378 l -1.47 -2.545 c -0.277 -0.479 -0.891 -0.643 -1.366 -0.366 c -0.479 0.276 -0.643 0.888 -0.366 1.366 l 1.469 2.545 h -2.938 c -0.553 0 -1 0.447 -1 1 s 0.447 1 1 1 h 2.939 l -1.47 2.546 c -0.276 0.479 -0.112 1.09 0.366 1.366 c 0.157 0.091 0.329 0.134 0.499 0.134 c 0.346 0 0.682 -0.179 0.867 -0.5 L 65 86.379 l 1.47 2.545 c 0.186 0.321 0.521 0.5 0.867 0.5 c 0.17 0 0.342 -0.043 0.499 -0.134 c 0.479 -0.276 0.643 -0.888 0.366 -1.366 l -1.47 -2.546 h 2.939 c 0.553 0 1 -0.447 1 -1 S 70.224 83.378 69.671 83.378 z" style="stroke: none; stroke-width: 1; stroke-dasharray: none; stroke-linecap: butt; stroke-linejoin: miter; stroke-miterlimit: 10; fill: rgb(0,0,0); fill-rule: nonzero; opacity: 1;" transform=" matrix(1 0 0 1 0 0) " stroke-linecap="round" />
</g>
</svg>