<svg width="36" height="20" viewBox="0 0 36 20" fill="none" xmlns="http://www.w3.org/2000/svg">
<rect width="36" height="20" fill="#531BAD"/>
<g clip-path="url(#clip0_0_1)">
<rect x="-352" y="-27" width="414" height="896" rx="37" fill="white"/>
<rect x="-352" y="-27" width="414" height="896" fill="#431098"/>
<g clip-path="url(#clip1_0_1)">
<path d="M-352 -27H62V324C62 340.569 48.5685 354 32 354H-322C-338.569 354 -352 340.569 -352 324V-27Z" fill="url(#paint0_linear_0_1)"/>
</g>
<path d="M1 1H18H35M1 10H35M1 19H8H18H35" stroke="white" stroke-width="1.5" stroke-linecap="square"/>
</g>
<defs>
<linearGradient id="paint0_linear_0_1" x1="-408.382" y1="-27" x2="-408.382" y2="457.776" gradientUnits="userSpaceOnUse">
<stop stop-color="#1B0F36"/>
<stop offset="0.625" stop-color="#2F1C78"/>
<stop offset="1" stop-color="#321E82"/>
</linearGradient>
<clipPath id="clip0_0_1">
<rect x="-352" y="-27" width="414" height="896" rx="37" fill="white"/>
</clipPath>
<clipPath id="clip1_0_1">
<path d="M-352 -27H62V324C62 340.569 48.5685 354 32 354H-322C-338.569 354 -352 340.569 -352 324V-27Z" fill="white"/>
</clipPath>
</defs>
</svg>
