<svg xmlns="http://www.w3.org/2000/svg" xmlns:xlink="http://www.w3.org/1999/xlink" version="1.1" width="256" height="256" viewBox="0 0 256 256" xml:space="preserve">

<defs>
</defs>
<g style="stroke: none; stroke-width: 0; stroke-dasharray: none; stroke-linecap: butt; stroke-linejoin: miter; stroke-miterlimit: 10; fill: none; fill-rule: nonzero; opacity: 1;" transform="translate(1.4065934065934016 1.4065934065934016) scale(2.81 2.81)" >
	<path d="M 10.265 35.871 c -0.033 -0.502 -0.056 -1.006 -0.056 -1.516 c 0 -12.432 10.078 -22.509 22.509 -22.509 c 8.993 0 16.752 5.276 20.357 12.9 c 2.715 -1.928 6.025 -3.072 9.609 -3.072 c 8.291 0 15.145 6.074 16.405 14.01 C 84.799 37.246 89 42.456 89 48.661 c 0 7.438 -6.03 13.468 -13.468 13.468 H 14.468 C 7.03 62.129 1 56.099 1 48.661 C 1 42.692 4.887 37.638 10.265 35.871 z" style="stroke: none; stroke-width: 1; stroke-dasharray: none; stroke-linecap: butt; stroke-linejoin: miter; stroke-miterlimit: 10; fill: rgb(98,195,247); fill-rule: nonzero; opacity: 1;" transform=" matrix(1 0 0 1 0 0) " stroke-linecap="round" />
	<path d="M 75.532 63.129 H 14.468 C 6.49 63.129 0 56.639 0 48.661 c 0 -6.004 3.677 -11.328 9.227 -13.48 c -0.011 -0.274 -0.018 -0.549 -0.018 -0.826 c 0 -12.963 10.546 -23.509 23.509 -23.509 c 8.661 0 16.68 4.848 20.744 12.445 c 2.78 -1.716 5.945 -2.617 9.223 -2.617 c 8.5 0 15.67 5.945 17.282 14.228 C 85.905 36.813 90 42.381 90 48.661 C 90 56.639 83.51 63.129 75.532 63.129 z M 32.718 12.846 c -11.86 0 -21.509 9.649 -21.509 21.509 c 0 0.488 0.022 0.97 0.054 1.45 c 0.03 0.456 -0.252 0.874 -0.686 1.016 C 5.447 38.506 2 43.265 2 48.661 c 0 6.875 5.593 12.468 12.468 12.468 h 61.064 C 82.407 61.129 88 55.536 88 48.661 c 0 -5.595 -3.772 -10.535 -9.174 -12.013 c -0.379 -0.104 -0.662 -0.419 -0.724 -0.808 c -1.211 -7.629 -7.695 -13.167 -15.418 -13.167 c -3.246 0 -6.369 0.999 -9.03 2.888 c -0.242 0.171 -0.548 0.226 -0.832 0.152 c -0.286 -0.075 -0.524 -0.272 -0.651 -0.54 C 48.63 17.685 40.994 12.846 32.718 12.846 z" style="stroke: none; stroke-width: 1; stroke-dasharray: none; stroke-linecap: butt; stroke-linejoin: miter; stroke-miterlimit: 10; fill: rgb(0,0,0); fill-rule: nonzero; opacity: 1;" transform=" matrix(1 0 0 1 0 0) " stroke-linecap="round" />
	<polyline points="37.55,42.01 32.31,56.52 39.55,56.52 31.98,78.15 58.02,50.19 48.98,50.39 54.39,42.01 37.55,42.01 " style="stroke: none; stroke-width: 1; stroke-dasharray: none; stroke-linecap: butt; stroke-linejoin: miter; stroke-miterlimit: 10; fill: rgb(249,193,0); fill-rule: nonzero; opacity: 1;" transform="  matrix(1 0 0 1 0 0) "/>
	<path d="M 31.975 79.154 c -0.177 0 -0.356 -0.047 -0.517 -0.144 c -0.405 -0.245 -0.583 -0.74 -0.427 -1.187 l 7.109 -20.3 h -5.832 c -0.326 0 -0.631 -0.159 -0.818 -0.426 c -0.188 -0.267 -0.233 -0.607 -0.122 -0.914 l 5.242 -14.518 c 0.143 -0.396 0.519 -0.661 0.94 -0.661 h 16.838 c 0.366 0 0.703 0.2 0.878 0.521 c 0.176 0.322 0.161 0.713 -0.038 1.021 l -4.39 6.799 l 7.163 -0.162 c 0.395 0.005 0.771 0.224 0.935 0.591 c 0.165 0.367 0.094 0.797 -0.181 1.091 L 32.708 78.836 C 32.513 79.045 32.246 79.154 31.975 79.154 z M 33.733 55.524 h 5.817 c 0.324 0 0.628 0.157 0.815 0.422 c 0.188 0.264 0.235 0.603 0.128 0.908 l -5.998 17.125 l 21.18 -22.741 l -6.679 0.151 c -0.376 0.001 -0.714 -0.188 -0.896 -0.512 c -0.181 -0.323 -0.168 -0.72 0.033 -1.03 l 4.417 -6.842 h -14.3 L 33.733 55.524 z" style="stroke: none; stroke-width: 1; stroke-dasharray: none; stroke-linecap: butt; stroke-linejoin: miter; stroke-miterlimit: 10; fill: rgb(0,0,0); fill-rule: nonzero; opacity: 1;" transform=" matrix(1 0 0 1 0 0) " stroke-linecap="round" />
</g>
</svg>