<svg width="32" height="32" viewBox="0 0 32 32" fill="none" xmlns="http://www.w3.org/2000/svg">
<path d="M6.79167 26.625C10.0972 25.2083 12.2222 24.0278 13.1667 23.0833C14.5833 21.6667 10.3333 21.6667 10.3333 14.5833C10.3333 9.86111 12.2222 7.5 16 7.5C19.7778 7.5 21.6667 9.86111 21.6667 14.5833C21.6667 21.6667 17.4167 21.6667 18.8333 23.0833C19.7778 24.0278 21.9028 25.2083 25.2083 26.625" fill="white"/>
<path d="M6.79167 26.625C10.0972 25.2083 12.2222 24.0278 13.1667 23.0833C14.5833 21.6667 10.3333 21.6667 10.3333 14.5833C10.3333 9.86111 12.2222 7.5 16 7.5C19.7778 7.5 21.6667 9.86111 21.6667 14.5833C21.6667 21.6667 17.4167 21.6667 18.8333 23.0833C19.7778 24.0278 21.9028 25.2083 25.2083 26.625" stroke="white" stroke-width="2" stroke-linecap="round"/>
<path d="M16 30.1667C23.824 30.1667 30.1667 23.824 30.1667 16C30.1667 8.17598 23.824 1.83334 16 1.83334C8.17596 1.83334 1.83333 8.17598 1.83333 16C1.83333 23.824 8.17596 30.1667 16 30.1667Z" stroke="white" stroke-width="2" stroke-linecap="square"/>
</svg>
