<svg width="27" height="31" viewBox="0 0 27 31" fill="none" xmlns="http://www.w3.org/2000/svg">
<path fill-rule="evenodd" clip-rule="evenodd" d="M0.889615 9.98657C0.375 11.1055 0.375 12.3784 0.375 14.9242V22.8749C0.375 26.4104 0.375 28.1782 1.47335 29.2765C2.56521 30.3684 4.31859 30.3748 7.8125 30.3749V21C7.8125 19.4122 9.09968 18.125 10.6875 18.125H16.3125C17.9003 18.125 19.1875 19.4122 19.1875 21V30.3749C22.6814 30.3748 24.4348 30.3684 25.5266 29.2765C26.625 28.1782 26.625 26.4104 26.625 22.8749V14.9242C26.625 12.3784 26.625 11.1055 26.1104 9.98657C25.5958 8.86769 24.6293 8.0393 22.6964 6.38252L20.8214 4.77537C17.3277 1.78076 15.5808 0.283447 13.5 0.283447C11.4192 0.283447 9.67232 1.78076 6.1786 4.77537L4.3036 6.38252C2.37069 8.0393 1.40423 8.86769 0.889615 9.98657ZM17.1875 30.3749V21C17.1875 20.5168 16.7957 20.125 16.3125 20.125H10.6875C10.2043 20.125 9.8125 20.5168 9.8125 21V30.3749H17.1875Z" fill="white"/>
</svg>
