<svg width="172" height="215" viewBox="0 0 172 215" fill="none" xmlns="http://www.w3.org/2000/svg">
<g clip-path="url(#clip0_12_20)">
<rect width="210" height="215" transform="translate(-13)" fill="url(#paint0_linear_12_20)"/>
<path fill-rule="evenodd" clip-rule="evenodd" d="M85.4058 92.1429L239.401 178.959V253.316H-55.5L-54.1062 182.546L85.4058 92.1429Z" fill="#374C70"/>
<path fill-rule="evenodd" clip-rule="evenodd" d="M83.2867 99.0844L91.9503 101.255L91.7228 95.4751L139.022 122.138L130.886 122.484L127.467 125.062L108.232 113.943L123.017 128.417L119.157 131.327L121.535 137.945L104.371 145.883L86.9342 128.195L98.1529 130.288L91.0491 119.016L108.232 127.195L93.6936 113.943L100.239 116.202L83.2867 99.0844Z" fill="url(#paint1_linear_12_20)"/>
<path fill-rule="evenodd" clip-rule="evenodd" d="M140.944 128.1L146.738 126.562L198.234 155.707L190.668 164.362L182.681 161.592L187.717 167.523L175.261 180.819L157.236 172.73L167.517 191.675L135.084 168.169L134.221 153.231L126.089 141.867L133.68 143.861L131.085 133.059L142.602 131.808L140.944 128.1Z" fill="url(#paint2_linear_12_20)"/>
<path fill-rule="evenodd" clip-rule="evenodd" d="M72.6563 145.005L88.9674 153.891V147.907L122.649 178.226L117.319 166.096L136.997 172.73L156.286 196.498L141.35 198.671L111.132 183.957L126.382 200.849L108.379 203.469L72.6563 170.627V160.186L83.2867 166.096L72.6563 145.005Z" fill="url(#paint3_linear_12_20)"/>
<path fill-rule="evenodd" clip-rule="evenodd" d="M19.3514 147.854L17.8621 139.791L34.6796 145.883L51.497 159.909L34.7062 158.106L19.3514 147.854Z" fill="url(#paint4_linear_12_20)"/>
<path fill-rule="evenodd" clip-rule="evenodd" d="M27.3755 170.247L21.9631 161.146L35.5812 164.418L33.391 168.108L27.3755 170.247Z" fill="url(#paint5_linear_12_20)"/>
<path fill-rule="evenodd" clip-rule="evenodd" d="M62.4124 137.077L57.6868 127.118L70.6181 131.248H62.4124V137.077Z" fill="url(#paint6_linear_12_20)"/>
<path fill-rule="evenodd" clip-rule="evenodd" d="M33.8522 133.494H39.1869L36.7241 128.195L43.9332 131.423L51.497 137.757L41.771 140.702L33.8522 133.494Z" fill="url(#paint7_linear_12_20)"/>
<path opacity="0.4" fill-rule="evenodd" clip-rule="evenodd" d="M40.0851 54.8387C39.7922 54.5388 39.7922 54.0526 40.0851 53.7527C40.378 53.4529 40.8529 53.4529 41.1458 53.7527L46.4491 59.1823C46.742 59.4822 46.742 59.9684 46.4491 60.2682C46.1562 60.5681 45.6813 60.5681 45.3884 60.2682L40.0851 54.8387ZM66.6016 81.9865C66.3087 81.6866 66.3087 81.2005 66.6016 80.9006C66.8945 80.6007 67.3694 80.6007 67.6623 80.9006L72.9656 86.3302C73.2585 86.63 73.2585 87.1162 72.9656 87.4161C72.6727 87.716 72.1978 87.716 71.9049 87.4161L66.6016 81.9865ZM119.635 135.196C119.342 135.496 119.342 135.982 119.635 136.282L124.938 141.712C125.231 142.012 125.706 142.012 125.999 141.712C126.291 141.412 126.291 140.926 125.999 140.626L120.695 135.196C120.402 134.896 119.928 134.896 119.635 135.196ZM146.151 163.43C145.858 163.13 145.858 162.644 146.151 162.344C146.444 162.044 146.919 162.044 147.212 162.344L152.515 167.774C152.808 168.074 152.808 168.56 152.515 168.86C152.222 169.16 151.747 169.16 151.454 168.86L146.151 163.43ZM172.668 189.492C172.375 189.792 172.375 190.278 172.668 190.578L177.971 196.007C178.264 196.307 178.739 196.307 179.032 196.007C179.324 195.708 179.324 195.221 179.032 194.922L173.728 189.492C173.435 189.192 172.961 189.192 172.668 189.492Z" fill="white"/>
<path opacity="0.4" fill-rule="evenodd" clip-rule="evenodd" d="M44.5521 0.542958C44.2592 0.243091 44.2592 -0.24309 44.5521 -0.542956C44.845 -0.842823 45.3199 -0.842823 45.6128 -0.542956L50.9161 4.88661C51.209 5.18648 51.209 5.67266 50.9161 5.97253C50.6232 6.27239 50.1483 6.27239 49.8554 5.97253L44.5521 0.542958ZM101.121 58.4584C100.828 58.1585 100.828 57.6723 101.121 57.3725C101.414 57.0726 101.888 57.0726 102.181 57.3725L107.485 62.802C107.778 63.1019 107.778 63.5881 107.485 63.8879C107.192 64.1878 106.717 64.1878 106.424 63.8879L101.121 58.4584ZM129.405 86.3302C129.112 86.63 129.112 87.1162 129.405 87.4161L134.708 92.8456C135.001 93.1455 135.476 93.1455 135.769 92.8456C136.062 92.5458 136.062 92.0596 135.769 91.7597L130.466 86.3302C130.173 86.0303 129.698 86.0303 129.405 86.3302ZM157.689 116.374C157.396 116.074 157.396 115.588 157.689 115.288C157.982 114.988 158.457 114.988 158.75 115.288L164.053 120.717C164.346 121.017 164.346 121.503 164.053 121.803C163.76 122.103 163.285 122.103 162.993 121.803L157.689 116.374ZM185.973 144.246C185.681 144.545 185.681 145.032 185.973 145.331L191.277 150.761C191.57 151.061 192.045 151.061 192.337 150.761C192.63 150.461 192.63 149.975 192.337 149.675L187.034 144.246C186.741 143.946 186.266 143.946 185.973 144.246ZM214.258 174.289C213.965 173.989 213.965 173.503 214.258 173.203C214.551 172.903 215.025 172.903 215.318 173.203L220.622 178.633C220.915 178.933 220.915 179.419 220.622 179.719C220.329 180.019 219.854 180.019 219.561 179.719L214.258 174.289ZM242.542 202.161C242.249 202.461 242.249 202.947 242.542 203.247L247.845 208.676C248.138 208.976 248.613 208.976 248.906 208.676C249.199 208.377 249.199 207.89 248.906 207.591L243.603 202.161C243.31 201.861 242.835 201.861 242.542 202.161Z" fill="white"/>
<path opacity="0.4" fill-rule="evenodd" clip-rule="evenodd" d="M122.836 21.8221C122.543 21.5222 122.543 21.036 122.836 20.7362C123.129 20.4363 123.604 20.4363 123.897 20.7362L129.2 26.1658C129.493 26.4656 129.493 26.9518 129.2 27.2517C128.907 27.5515 128.433 27.5515 128.14 27.2517L122.836 21.8221ZM151.121 50.7798C150.828 50.4799 150.828 49.9938 151.121 49.6939C151.414 49.394 151.888 49.394 152.181 49.6939L157.485 55.1235C157.777 55.4233 157.777 55.9095 157.485 56.2094C157.192 56.5092 156.717 56.5092 156.424 56.2094L151.121 50.7798ZM179.405 78.6516C179.112 78.9515 179.112 79.4376 179.405 79.7375L184.708 85.1671C185.001 85.4669 185.476 85.4669 185.769 85.1671C186.062 84.8672 186.062 84.381 185.769 84.0812L180.466 78.6516C180.173 78.3517 179.698 78.3517 179.405 78.6516Z" fill="white"/>
<path opacity="0.4" fill-rule="evenodd" clip-rule="evenodd" d="M-12.9479 51.7334C-13.2408 51.4336 -13.2408 50.9474 -12.9479 50.6475C-12.655 50.3477 -12.1801 50.3477 -11.8872 50.6475L-6.58394 56.0771C-6.29104 56.377 -6.29104 56.8631 -6.58394 57.163C-6.87683 57.4629 -7.3517 57.4629 -7.6446 57.163L-12.9479 51.7334ZM15.3364 80.6911C15.0435 80.3913 15.0435 79.9051 15.3364 79.6052C15.6293 79.3054 16.1041 79.3054 16.397 79.6052L21.7003 85.0348C21.9932 85.3347 21.9932 85.8208 21.7003 86.1207C21.4074 86.4206 20.9326 86.4206 20.6397 86.1207L15.3364 80.6911ZM43.6206 108.563C43.3278 108.863 43.3278 109.349 43.6206 109.649L48.9239 115.078C49.2168 115.378 49.6917 115.378 49.9846 115.078C50.2775 114.779 50.2775 114.292 49.9846 113.993L44.6813 108.563C44.3884 108.263 43.9135 108.263 43.6206 108.563ZM71.9049 138.607C71.612 138.307 71.612 137.821 71.9049 137.521C72.1978 137.221 72.6727 137.221 72.9656 137.521L78.2689 142.95C78.5618 143.25 78.5618 143.736 78.2689 144.036C77.976 144.336 77.5011 144.336 77.2082 144.036L71.9049 138.607ZM100.189 166.478C99.8963 166.778 99.8963 167.264 100.189 167.564L105.493 172.994C105.785 173.294 106.26 173.294 106.553 172.994C106.846 172.694 106.846 172.208 106.553 171.908L101.25 166.478C100.957 166.178 100.482 166.178 100.189 166.478ZM156.758 225.48C156.465 225.18 156.465 224.694 156.758 224.394C157.051 224.094 157.525 224.094 157.818 224.394L163.122 229.823C163.415 230.123 163.415 230.609 163.122 230.909C162.829 231.209 162.354 231.209 162.061 230.909L156.758 225.48ZM185.042 253.351C184.749 253.651 184.749 254.138 185.042 254.437L190.345 259.867C190.638 260.167 191.113 260.167 191.406 259.867C191.699 259.567 191.699 259.081 191.406 258.781L186.103 253.351C185.81 253.052 185.335 253.052 185.042 253.351Z" fill="white"/>
<path opacity="0.4" fill-rule="evenodd" clip-rule="evenodd" d="M17.1041 128.572C16.8113 128.273 16.8113 127.786 17.1041 127.486C17.397 127.187 17.8719 127.187 18.1648 127.486L27.0036 136.536C27.2965 136.836 27.2965 137.322 27.0036 137.622C26.7108 137.922 26.2359 137.922 25.943 137.622L17.1041 128.572ZM47.1562 159.34C46.8633 159.04 46.8633 158.554 47.1562 158.254C47.4491 157.954 47.9239 157.954 48.2168 158.254L57.0557 167.303C57.3486 167.603 57.3486 168.089 57.0557 168.389C56.7628 168.689 56.2879 168.689 55.995 168.389L47.1562 159.34ZM107.26 219.789C106.967 220.089 106.967 220.575 107.26 220.875L116.099 229.924C116.392 230.224 116.867 230.224 117.16 229.924C117.453 229.625 117.453 229.138 117.16 228.838L108.321 219.789C108.028 219.489 107.553 219.489 107.26 219.789ZM137.312 251.643C137.019 251.343 137.019 250.857 137.312 250.557C137.605 250.257 138.08 250.257 138.373 250.557L147.212 259.606C147.505 259.906 147.505 260.392 147.212 260.692C146.919 260.992 146.444 260.992 146.151 260.692L137.312 251.643ZM167.364 281.324C167.071 281.624 167.071 282.11 167.364 282.41L176.203 291.46C176.496 291.759 176.971 291.759 177.264 291.46C177.557 291.16 177.557 290.673 177.264 290.374L168.425 281.324C168.132 281.024 167.657 281.024 167.364 281.324Z" fill="white"/>
<path opacity="0.4" d="M15.3364 152.358C15.0435 152.058 15.0435 151.572 15.3364 151.272C15.6293 150.972 16.1041 150.972 16.397 151.272L23.4681 158.511C23.761 158.811 23.761 159.297 23.4681 159.597C23.1752 159.897 22.7003 159.897 22.4074 159.597L15.3364 152.358Z" fill="white"/>
<path opacity="0.4" fill-rule="evenodd" clip-rule="evenodd" d="M87.0521 2.01657C86.7592 2.31644 86.7592 2.80262 87.0521 3.10248L101.194 17.5813C101.487 17.8812 101.962 17.8812 102.255 17.5813C102.548 17.2815 102.548 16.7953 102.255 16.4954L88.1127 2.01657C87.8198 1.7167 87.345 1.7167 87.0521 2.01657ZM145.388 74.5394C145.096 74.8393 145.096 75.3255 145.388 75.6254L159.531 90.1042C159.823 90.4041 160.298 90.4041 160.591 90.1042C160.884 89.8044 160.884 89.3182 160.591 89.0183L146.449 74.5394C146.156 74.2396 145.681 74.2396 145.388 74.5394Z" fill="white"/>
<path opacity="0.4" fill-rule="evenodd" clip-rule="evenodd" d="M140.64 26.1657C140.347 26.4656 140.347 26.9518 140.64 27.2517L142.407 29.0615C142.7 29.3614 143.175 29.3614 143.468 29.0615C143.761 28.7617 143.761 28.2755 143.468 27.9756L141.7 26.1657C141.407 25.8659 140.933 25.8659 140.64 26.1657ZM174.227 60.553C173.934 60.8529 173.934 61.3391 174.227 61.6389L175.995 63.4488C176.288 63.7487 176.763 63.7487 177.056 63.4488C177.349 63.1489 177.349 62.6628 177.056 62.3629L175.288 60.553C174.995 60.2532 174.52 60.2532 174.227 60.553Z" fill="white"/>
<path opacity="0.4" fill-rule="evenodd" clip-rule="evenodd" d="M72.2818 57.0877C71.9889 56.7878 71.9889 56.3016 72.2818 56.0017C72.5747 55.7019 73.0496 55.7019 73.3425 56.0017L91.0201 74.1003C91.313 74.4002 91.313 74.8864 91.0201 75.1862C90.7272 75.4861 90.2524 75.4861 89.9595 75.1862L72.2818 57.0877ZM7.21967 103.692C6.92677 103.392 6.92677 102.906 7.21967 102.606C7.51256 102.306 7.98743 102.306 8.28033 102.606L25.958 120.704C26.2509 121.004 26.2509 121.49 25.958 121.79C25.6651 122.09 25.1902 122.09 24.8973 121.79L7.21967 103.692ZM162.741 148.615C162.448 148.915 162.448 149.401 162.741 149.701L180.419 167.799C180.712 168.099 181.187 168.099 181.48 167.799C181.772 167.5 181.772 167.013 181.48 166.714L163.802 148.615C163.509 148.315 163.034 148.315 162.741 148.615Z" fill="white"/>
<path opacity="0.9" d="M54.4207 56.5584H78.6976C86.1765 56.5584 92.2393 50.3182 92.2393 42.6205C92.2393 34.9228 86.1765 28.6826 78.6976 28.6826C76.4408 28.6826 74.3128 29.2509 72.4415 30.256C69.8359 22.4772 62.6612 16.889 54.2185 16.889C43.5755 16.889 34.9476 25.7693 34.9476 36.7237C34.9476 36.9482 34.9513 37.1719 34.9585 37.3946C31.8517 39.1125 29.7393 42.4889 29.7393 46.373C29.7393 51.9982 34.1698 56.5584 39.6351 56.5584H54.2185C54.2489 56.5584 54.4207 56.5584 54.4207 56.5584H54.2185H54.4207Z" fill="url(#paint8_linear_12_20)"/>
<path opacity="0.6" d="M14.7818 51.9686C14.4889 51.6687 14.4889 51.1826 14.7818 50.8827C15.0747 50.5828 15.5496 50.5828 15.8425 50.8827L33.5202 68.9813C33.813 69.2811 33.813 69.7673 33.5202 70.0672C33.2273 70.367 32.7524 70.367 32.4595 70.0672L14.7818 51.9686Z" fill="white"/>
<path opacity="0.120554" d="M112.22 90.8941C111.927 90.5943 111.927 90.1081 112.22 89.8082C112.513 89.5084 112.987 89.5084 113.28 89.8082L118.584 95.2378C118.877 95.5377 118.877 96.0238 118.584 96.3237C118.291 96.6236 117.816 96.6236 117.523 96.3237L112.22 90.8941Z" fill="white"/>
<path opacity="0.5" d="M96.9049 28.547C96.612 28.2472 96.612 27.761 96.9049 27.4611C97.1978 27.1612 97.6727 27.1612 97.9656 27.4611L103.269 32.8907C103.562 33.1906 103.562 33.6767 103.269 33.9766C102.976 34.2765 102.501 34.2765 102.208 33.9766L96.9049 28.547Z" fill="white"/>
</g>
<defs>
<linearGradient id="paint0_linear_12_20" x1="226.904" y1="215" x2="226.904" y2="-18.9366" gradientUnits="userSpaceOnUse">
<stop stop-color="#6E7C84"/>
<stop offset="1" stop-color="#668BA7"/>
</linearGradient>
<linearGradient id="paint1_linear_12_20" x1="64.5587" y1="111.791" x2="96.2783" y2="156.395" gradientUnits="userSpaceOnUse">
<stop stop-color="#5B8189"/>
<stop offset="1" stop-color="#A5BABD"/>
</linearGradient>
<linearGradient id="paint2_linear_12_20" x1="101.847" y1="147.638" x2="142.792" y2="205.334" gradientUnits="userSpaceOnUse">
<stop stop-color="#5B8189"/>
<stop offset="1" stop-color="#A5BABD"/>
</linearGradient>
<linearGradient id="paint3_linear_12_20" x1="44.5551" y1="163.929" x2="77.4368" y2="223.748" gradientUnits="userSpaceOnUse">
<stop stop-color="#5B8189"/>
<stop offset="1" stop-color="#A5BABD"/>
</linearGradient>
<linearGradient id="paint4_linear_12_20" x1="6.56017" y1="146.303" x2="16.8835" y2="168.252" gradientUnits="userSpaceOnUse">
<stop stop-color="#5B8189"/>
<stop offset="1" stop-color="#A5BABD"/>
</linearGradient>
<linearGradient id="paint5_linear_12_20" x1="17.3871" y1="164.091" x2="22.3803" y2="173.593" gradientUnits="userSpaceOnUse">
<stop stop-color="#5B8189"/>
<stop offset="1" stop-color="#A5BABD"/>
</linearGradient>
<linearGradient id="paint6_linear_12_20" x1="53.3416" y1="130.342" x2="59.2206" y2="140.05" gradientUnits="userSpaceOnUse">
<stop stop-color="#5B8189"/>
<stop offset="1" stop-color="#A5BABD"/>
</linearGradient>
<linearGradient id="paint7_linear_12_20" x1="27.9233" y1="132.243" x2="35.0096" y2="144.957" gradientUnits="userSpaceOnUse">
<stop stop-color="#5B8189"/>
<stop offset="1" stop-color="#A5BABD"/>
</linearGradient>
<linearGradient id="paint8_linear_12_20" x1="41.2702" y1="-63.8462" x2="105.059" y2="49.3332" gradientUnits="userSpaceOnUse">
<stop stop-color="white"/>
<stop offset="1" stop-color="white" stop-opacity="0.01"/>
</linearGradient>
<clipPath id="clip0_12_20">
<rect width="210" height="215" fill="white" transform="translate(-13)"/>
</clipPath>
</defs>
</svg>
