<svg width="34" height="34" viewBox="0 0 34 34" fill="none" xmlns="http://www.w3.org/2000/svg">
<path d="M13.6599 14.9076C13.6175 13.5963 13.6427 12.2441 13.677 11.2441C14.5602 11.7144 15.7439 12.3686 16.8583 13.061C17.5879 13.5143 18.271 13.9736 18.815 14.3998C19.3889 14.8495 19.7045 15.184 19.8147 15.3748C19.9248 15.5656 20.0567 16.0062 20.1592 16.728C20.2563 17.4123 20.3125 18.2335 20.3403 19.092C20.3827 20.4033 20.3575 21.7555 20.3232 22.7555C19.44 22.2852 18.2563 21.631 17.1419 20.9386C16.4123 20.4853 15.7292 20.026 15.1852 19.5997C14.6113 19.1501 14.2957 18.8156 14.1855 18.6248C14.0753 18.434 13.9435 17.9934 13.841 17.2716C13.7439 16.5873 13.6877 15.7661 13.6599 14.9076Z" stroke="white" stroke-width="2"/>
<circle cx="17" cy="17" r="12.75" stroke="white" stroke-width="2"/>
</svg>
