<svg width="34" height="34" viewBox="0 0 34 34" fill="none" xmlns="http://www.w3.org/2000/svg">
<rect width="34" height="34" fill="#531BAD"/>
<g clip-path="url(#clip0_0_1)">
<rect x="-332" y="-846" width="414" height="896" rx="37" fill="white"/>
<rect x="-332" y="-846" width="414" height="896" fill="#431098"/>
<path d="M-332 6C-332 -3.42809 -332 -8.14214 -329.071 -11.0711C-326.142 -14 -321.428 -14 -312 -14H62C71.4281 -14 76.1422 -14 79.0711 -11.0711C82 -8.14214 82 -3.42809 82 6V50H-332V6Z" fill="#7F4CD2"/>
<path d="M3.91502 18.9445C3.38631 17.9941 3.12196 17.5188 3.12196 17C3.12196 16.4811 3.38631 16.0059 3.91502 15.0555L6.27716 10.8092L8.77352 6.64032C9.33227 5.70722 9.61165 5.24067 10.061 4.98125C10.5103 4.72183 11.054 4.71316 12.1415 4.69581L17 4.61832L21.8585 4.69581C22.946 4.71316 23.4897 4.72183 23.939 4.98125C24.3884 5.24067 24.6677 5.70722 25.2265 6.64031L27.7228 10.8092L30.085 15.0555C30.6137 16.0059 30.878 16.4811 30.878 17C30.878 17.5188 30.6137 17.9941 30.085 18.9445L27.7228 23.1908L25.2265 27.3597C24.6677 28.2928 24.3884 28.7593 23.939 29.0187C23.4897 29.2782 22.946 29.2868 21.8585 29.3042L17 29.3817L12.1415 29.3042C11.054 29.2868 10.5103 29.2782 10.061 29.0187C9.61165 28.7593 9.33227 28.2928 8.77352 27.3597L6.27716 23.1908L3.91502 18.9445Z" stroke="white" stroke-width="2"/>
<circle cx="17" cy="17" r="4.25" stroke="white" stroke-width="2"/>
</g>
<defs>
<clipPath id="clip0_0_1">
<rect x="-332" y="-846" width="414" height="896" rx="37" fill="white"/>
</clipPath>
</defs>
</svg>
