<svg width="24" height="15" viewBox="0 0 24 15" fill="none" xmlns="http://www.w3.org/2000/svg">
<rect width="24" height="15" fill="#531BAD"/>
<g clip-path="url(#clip0_0_1)">
<rect x="-195" y="-358" width="414" height="896" rx="37" fill="white"/>
<rect x="-195" y="-358" width="414" height="896" fill="#431098"/>
<g clip-path="url(#clip1_0_1)">
<path d="M-195 -358H219V-7C219 9.56854 205.569 23 189 23H-165C-181.569 23 -195 9.56854 -195 -7V-358Z" fill="url(#paint0_linear_0_1)"/>
<path opacity="0.4" fill-rule="evenodd" clip-rule="evenodd" d="M240.857 -18.1417C240.857 -18.1417 238.18 -95.7576 177.491 -107.894C124.429 -115.111 83.5192 -59.0931 36.0716 -59.0931C-19.2266 -59.0931 -45.2872 -91.6032 -98.9763 -91.6032C-138.134 -91.6032 -176.371 -63.3387 -229.695 -73.1361C-247.433 -76.3951 -273.857 -82.0034 -273.857 -82.0034L-272.978 24.938L240.857 32.153V-18.1417Z" fill="url(#paint1_linear_0_1)"/>
<path opacity="0.6" fill-rule="evenodd" clip-rule="evenodd" d="M-288.643 38.9907C-288.643 38.9907 -285.08 -64.3141 -204.304 -80.467C-133.68 -90.0731 -79.2302 -15.5145 -16.0787 -15.5145C57.5218 -15.5145 92.2079 -58.7847 163.667 -58.7847C215.785 -58.7847 266.678 -21.1654 337.65 -34.2055C361.259 -38.5431 396.429 -46.0076 396.429 -46.0076L395.259 96.3287L-288.643 105.932V38.9907Z" fill="url(#paint2_linear_0_1)"/>
</g>
<path d="M2 2L12 12L22 2" stroke="#CCD2E3" stroke-width="3"/>
</g>
<defs>
<linearGradient id="paint0_linear_0_1" x1="-251.382" y1="-358" x2="-251.382" y2="126.776" gradientUnits="userSpaceOnUse">
<stop stop-color="#1B0F36"/>
<stop offset="0.625" stop-color="#2F1C78"/>
<stop offset="1" stop-color="#321E82"/>
</linearGradient>
<linearGradient id="paint1_linear_0_1" x1="310.956" y1="-108.536" x2="310.956" y2="70.4736" gradientUnits="userSpaceOnUse">
<stop stop-color="#1B0F36"/>
<stop offset="0.625" stop-color="#2F1C78"/>
<stop offset="1" stop-color="#321E82"/>
</linearGradient>
<linearGradient id="paint2_linear_0_1" x1="-381.942" y1="-81.3214" x2="-381.942" y2="156.935" gradientUnits="userSpaceOnUse">
<stop stop-color="#1B0F36"/>
<stop offset="0.625" stop-color="#2F1C78"/>
<stop offset="1" stop-color="#321E82"/>
</linearGradient>
<clipPath id="clip0_0_1">
<rect x="-195" y="-358" width="414" height="896" rx="37" fill="white"/>
</clipPath>
<clipPath id="clip1_0_1">
<path d="M-195 -358H219V-7C219 9.56854 205.569 23 189 23H-165C-181.569 23 -195 9.56854 -195 -7V-358Z" fill="white"/>
</clipPath>
</defs>
</svg>
